<?xml version="1.0" encoding="UTF-8"?><svg id="Layer_2" xmlns="http://www.w3.org/2000/svg" viewBox="0 0 266.69 398.93"><defs><style>.cls-1{fill:#fff;}.cls-2{fill:#d90000;}</style></defs><g id="Layer_1-2"><path class="cls-1" d="m187.62,279.97c-4.22-.33-8.22-1.3-12.23-2.32-5.58-1.42-10.93-3.49-16.32-5.49-4.72-1.75-9.55-3.2-14.03-5.55-8.46-4.45-17.15-8.4-25.27-13.57-7.95-5.06-15.74-10.31-22.99-16.26-4.74-3.89-9.67-7.64-13.59-12.53-1.81-2.26-4.41-3.92-6.39-6.15-7.36-8.31-14.11-17.13-19.76-26.65-4.07-6.87-7.98-13.93-10.87-21.41-2.1-5.42-3.5-11.1-5.25-16.65-.35-1.11-.23-2.85-1.62-3-1.04-.11-1.68,1.35-2.33,2.26-4.48,6.26-13.53,9.68-20.67,7.77-11.26-3.02-18.65-15.63-15.62-26.89,1.82-6.78,5.63-12.29,12.03-15.31,3.57-1.68,7.65-2.44,11.72-1.52,1.69.38,2.31,0,2.36-1.87.08-3-.44-5.94-.65-8.91-1.23-17.5,1.33-34.24,9.02-50.17,2.82-5.83,6.22-11.2,9.69-16.64,3.63-5.68,8.15-10.52,12.93-14.91,10.02-9.2,21.49-16.47,34.69-20.33C103.92.53,115.66-.82,127.63.5c10.66,1.18,20.85,3.69,30.41,8.77,6.18,3.28,11.86,7.19,17.38,11.44,4.52,3.47,8.45,7.58,11.97,11.88,3.38,4.13,6.95,8.31,9.39,13.16,3.92,7.76,8.31,15.38,10.22,23.93,1.98,8.84,3.54,17.78,3.82,26.88.01.48-.19,1.05.51,1.62,4.37-2.7,8.86-5.8,14.47-3.88,3.73,1.28,7.22,3.22,9.53,6.54,4.34,6.24,3.41,16.69-1.66,22.17-3.61,3.91-8.04,5.24-13.23,4.97-5.24-.27-8.6-3.74-12.39-7.17-2.25,12.58-8.67,22.93-14.75,33.32-4.35,7.43-8.97,14.74-13.32,22.16-3.59,6.13-7.52,12.22-10.11,18.87-3.72,9.54-7.91,19.01-8.84,29.39-.99,11.13,1.06,21.6,6.45,31.53,4.79,8.82,11.33,15.98,18.9,22.36.45.38,1.05.64,1.22,1.53Zm-59.33-171.59c.18-2.94-.16-5.84-1.74-8.32-1.53-2.41-3.74-4.19-6.79-4.19-3.02,0-5.75,1.53-6.86,4.02-2.47,5.52-3.03,11.33-.4,17.14,2.03,4.49,7.96,5.65,11.58,2.34,3.29-3.02,4.5-6.7,4.22-11Zm-55.26-45.49c-.05,6.24,3.53,9.16,8.57,9.25,5.64.11,9.41-4.08,9.33-10.03-.06-4.76-4.38-9.28-8.94-9.36-5.17-.09-9,4.24-8.96,10.14Zm79.26,9.85c6.76-.47,9.01-3.69,8.86-9.81-.14-5.66-2.43-9.19-9.01-9.21-4.98-.02-9.15,4.52-9.06,9.94.09,5.47,4.28,8.93,9.21,9.08Z"/><path class="cls-1" d="m110.37,251.67c-7.3,1.91-13.63,4.25-19.73,7.29-4.79,2.38-8.95,5.37-11.67,10.07-2.38,4.12-2.6,8.37.08,12.37,2.51,3.75,5.53,6.84,9.8,9.04,7.5,3.87,15.2,6.98,23.45,8.6,5.46,1.07,10.98,1.95,16.51,2.49,9.58.93,19.17,1.83,28.82,1.47,10.47-.39,20.85-1.52,31.22-3.14,5.29-.82,10.41-1.99,15.48-3.51,6.03-1.81,11.67-4.59,16.99-7.91,4.59-2.87,7.6-7.13,7.87-12.59.32-6.45-3.22-11.16-8.54-14.28-3.65-2.14-7.46-4.07-11.38-5.77-6.64-2.87-13.62-4.09-20.65-5.27-6.29-1.05-12.58-2.07-18.95-2.54-1.02-.07-1.77-.22-2.18-1.4-2.55-7.38-3.6-14.88-2.46-22.67.21-1.46.79-1.57,2.05-1.55,12.8.17,25.35,2.19,37.78,5.04,5.77,1.33,11.35,3.34,17.05,4.93,11.21,3.13,21.36,8.36,30.62,15.27,3.59,2.68,6.93,5.81,9.46,9.64,3.4,5.12,4.77,10.76,4.49,16.87-.38,8.23-.34,16.46,0,24.69.1,2.54.12,5.08.12,7.62.04,11.13.02,22.27.1,33.4.07,9.17-3.37,16.92-9.23,23.77-3.79,4.42-8.06,8.46-12.92,11.48-6.12,3.8-12.21,7.93-19.05,10.31-10.35,3.6-20.57,7.92-31.45,9.49-9.57,1.38-19.12,3.09-28.83,3.58-6.75.34-13.48.5-20.23.44-11.83-.12-23.5-1.71-35.2-3.34-8-1.11-15.73-3.01-23.32-5.54-5.94-1.98-12.04-3.67-17.6-6.56-8.66-4.5-17.05-9.29-24.28-16.2-6.69-6.4-10.67-13.85-12.78-22.58-.3-1.25-.31-2.6-.3-3.91.15-21.48.33-42.95.5-64.43.03-3.66-.51-7.35.76-10.92,2.2-6.16,5.35-11.58,10.73-15.63,2.91-2.19,5.37-5.01,8.66-6.69,7.05-3.61,13.92-7.63,21.51-10.02,2.72-.86,5.53-1.48,8.24-2.42,2.52-.88,3.46,1.66,4.87,2.66,2.52,1.78,5,3.77,7.07,6.2,1.23,1.45,3.09,2.21,4.64,3.31,3.83,2.73,7.22,6.03,11.86,8.83Zm-70.43,39.41c-.23,2.7-.53,4.69-.55,6.69-.11,12.97-.2,25.94-.22,38.9,0,2.88-.24,5.81.52,8.62,1.68,6.12,4.95,11.35,9.45,15.78,7.87,7.76,17.25,13.16,27.43,17.3,8.72,3.54,17.57,6.5,26.87,8.27,9.95,1.89,19.93,3.58,30.01,4.36,8.99.69,18.01.47,27.03.19,13.69-.42,27.02-3.1,40.36-5.7,10.21-2,19.76-6.22,29.08-10.7,6.96-3.34,13.33-7.78,18.97-13.18,6.98-6.68,10.57-14.62,10.42-24.42-.19-12-.57-24.01-.28-36.02.08-3.36-.28-6.73-.44-10.09-4.41,5.41-10.43,8.42-16.13,11.86-5.84,3.53-12.18,5.94-18.62,8.1-11,3.69-22.11,6.64-33.7,8.14-13.47,1.75-26.92,3.08-40.5,3.21-16.22.15-32.28-1.76-48.28-4.06-11.99-1.72-23.41-5.88-34.75-10-6.78-2.46-12.87-6.52-18.94-10.43-2.66-1.71-4.82-4.18-7.75-6.79Z"/><path class="cls-2" d="m156.34,83.2c-4.75.01-8.77.18-12.58,1.72-1.36.55-2.96,1.01-2.82,2.97.12,1.79,1.51,2.44,2.93,3,7.45,2.99,15.12,3.47,22.94,1.88,1.64-.33,3.2-.9,4.58-1.88,1.4-.99,1.38-2.29.35-3.36-.87-.91-2.02-1.8-3.21-2.14-4.2-1.19-8.41-2.53-12.18-2.2Z"/><path class="cls-2" d="m74.68,91.8c4.11.04,7.18.11,10.18-.66,2.16-.56,5.08-.95,5.29-3.43.23-2.64-2.65-3.33-4.79-4.02-5.31-1.72-10.77-2.05-16.31-1.71-2.81.17-5.6.39-8.17,1.59-1.14.53-2.54,1.01-2.52,2.67.02,1.67,1.2,2.31,2.56,2.94,4.72,2.16,9.69,2.82,13.76,2.62Z"/></g></svg>